HIERARCHY
ROOT Hips
{
OFFSET 0.0000 111.0000 0.0000
CHANNELS 6 Xposition Yposition Zposition Yrotation Xrotation Zrotation
	JOINT RightUpperLeg
	{
		OFFSET -10.5000 -8.8000 0.0000
		CHANNELS 3 Yrotation Xrotation Zrotation
		JOINT RightLowerLeg
		{
			OFFSET 0.0000 -45.6000 0.0000
			CHANNELS 3 Yrotation Xrotation Zrotation
			JOINT RightFoot
			{
				OFFSET 0.0000 -46.7000 0.0000
				CHANNELS 3 Yrotation Xrotation Zrotation
				JOINT RightToe
				{
					OFFSET 0.0000 -8.0000 12.1000
					CHANNELS 3 Yrotation Xrotation Zrotation
					End Site
					{
						OFFSET 0.0000 0.0000 2.4200
					}
				}
			}
		}
	}
	JOINT LeftUpperLeg
	{
		OFFSET 10.5000 -8.8000 0.0000
		CHANNELS 3 Yrotation Xrotation Zrotation
		JOINT LeftLowerLeg
		{
			OFFSET 0.0000 -45.6000 0.0000
			CHANNELS 3 Yrotation Xrotation Zrotation
			JOINT LeftFoot
			{
				OFFSET 0.0000 -46.7000 0.0000
				CHANNELS 3 Yrotation Xrotation Zrotation
				JOINT LeftToe
				{
					OFFSET 0.0000 -8.0000 12.1000
					CHANNELS 3 Yrotation Xrotation Zrotation
					End Site
					{
						OFFSET 0.0000 0.0000 2.4200
					}
				}
			}
		}
	}
	JOINT Spine
	{
		OFFSET 0.0000 9.7000 0.0000
		CHANNELS 3 Yrotation Xrotation Zrotation
		JOINT Spine1
		{
			OFFSET 0.0000 11.2000 0.0000
			CHANNELS 3 Yrotation Xrotation Zrotation
			JOINT Spine2
			{
				OFFSET 0.0000 12.1000 0.0000
				CHANNELS 3 Yrotation Xrotation Zrotation
				JOINT Spine3
				{
					OFFSET 0.0000 11.7000 1.2000
					CHANNELS 3 Yrotation Xrotation Zrotation
					JOINT Neck
					{
						OFFSET 0.0000 12.0000 -1.2000
						CHANNELS 3 Yrotation Xrotation Zrotation
						JOINT Head
						{
							OFFSET 0.0000 10.0000 0.0000
							CHANNELS 3 Yrotation Xrotation Zrotation
							End Site
							{
								OFFSET 0.0000 20.0000 0.0000
							}
						}
					}
					JOINT RightShoulder
					{
						OFFSET -4.9000 4.0000 -1.2000
						CHANNELS 3 Yrotation Xrotation Zrotation
						JOINT RightUpperArm
						{
							OFFSET -15.6000 0.0000 0.0000
							CHANNELS 3 Yrotation Xrotation Zrotation
							JOINT RightLowerArm
							{
								OFFSET -25.9000 0.0000 0.0000
								CHANNELS 3 Yrotation Xrotation Zrotation
								JOINT RightHand
								{
									OFFSET -28.4000 0.0000 0.0000
									CHANNELS 3 Yrotation Xrotation Zrotation
									JOINT RightThumbFinger
									{
										OFFSET -3.4000 0.3000 4.2000
										CHANNELS 3 Yrotation Xrotation Zrotation
										JOINT RightThumbFinger1
										{
											OFFSET -3.5000 0.0000 3.5000
											CHANNELS 3 Yrotation Xrotation Zrotation
											JOINT RightThumbFinger2
											{
												OFFSET -2.5000 0.0000 2.4000
												CHANNELS 3 Yrotation Xrotation Zrotation
												End Site
												{
													OFFSET -2.1450 0.0000 2.0592
												}
											}
										}
									}
									JOINT RightIndexFinger
									{
										OFFSET -4.4000 0.7000 2.6000
										CHANNELS 3 Yrotation Xrotation Zrotation
										JOINT RightIndexFinger1
										{
											OFFSET -7.0000 -0.1000 1.4000
											CHANNELS 3 Yrotation Xrotation Zrotation
											JOINT RightIndexFinger2
											{
												OFFSET -5.0000 -0.2000 0.0000
												CHANNELS 3 Yrotation Xrotation Zrotation
												JOINT RightIndexFinger3
												{
													OFFSET -2.7000 -0.2000 0.0000
													CHANNELS 3 Yrotation Xrotation Zrotation
													End Site
													{
														OFFSET -2.3814 -0.1764 0.0000
													}
												}
											}
										}
									}
									JOINT RightMiddleFinger
									{
										OFFSET -4.6000 0.7000 1.0000
										CHANNELS 3 Yrotation Xrotation Zrotation
										JOINT RightMiddleFinger1
										{
											OFFSET -7.0000 -0.1000 0.4000
											CHANNELS 3 Yrotation Xrotation Zrotation
											JOINT RightMiddleFinger2
											{
												OFFSET -5.3000 -0.3000 0.0000
												CHANNELS 3 Yrotation Xrotation Zrotation
												JOINT RightMiddleFinger3
												{
													OFFSET -3.4000 -0.3000 0.0000
													CHANNELS 3 Yrotation Xrotation Zrotation
													End Site
													{
														OFFSET -2.9988 -0.2646 0.0000
													}
												}
											}
										}
									}
									JOINT RightRingFinger
									{
										OFFSET -4.5000 0.8000 -0.1000
										CHANNELS 3 Yrotation Xrotation Zrotation
										JOINT RightRingFinger1
										{
											OFFSET -6.3000 -0.1000 -0.7000
											CHANNELS 3 Yrotation Xrotation Zrotation
											JOINT RightRingFinger2
											{
												OFFSET -4.7000 -0.4000 0.0000
												CHANNELS 3 Yrotation Xrotation Zrotation
												JOINT RightRingFinger3
												{
													OFFSET -3.2000 -0.3000 0.0000
													CHANNELS 3 Yrotation Xrotation Zrotation
													End Site
													{
														OFFSET -2.8224 -0.2646 0.0000
													}
												}
											}
										}
									}
									JOINT RightPinkyFinger
									{
										OFFSET -4.3000 0.7000 -1.6000
										CHANNELS 3 Yrotation Xrotation Zrotation
										JOINT RightPinkyFinger1
										{
											OFFSET -5.6000 -0.1000 -1.5000
											CHANNELS 3 Yrotation Xrotation Zrotation
											JOINT RightPinkyFinger2
											{
												OFFSET -3.7000 -0.2000 0.0000
												CHANNELS 3 Yrotation Xrotation Zrotation
												JOINT RightPinkyFinger3
												{
													OFFSET -2.4000 -0.1000 0.0000
													CHANNELS 3 Yrotation Xrotation Zrotation
													End Site
													{
														OFFSET -2.1168 -0.0882 0.0000
													}
												}
											}
										}
									}
								}
							}
						}
					}
					JOINT LeftShoulder
					{
						OFFSET 4.9000 4.0000 -1.2000
						CHANNELS 3 Yrotation Xrotation Zrotation
						JOINT LeftUpperArm
						{
							OFFSET 15.6000 0.0000 0.0000
							CHANNELS 3 Yrotation Xrotation Zrotation
							JOINT LeftLowerArm
							{
								OFFSET 25.9000 0.0000 0.0000
								CHANNELS 3 Yrotation Xrotation Zrotation
								JOINT LeftHand
								{
									OFFSET 28.4000 0.0000 0.0000
									CHANNELS 3 Yrotation Xrotation Zrotation
									JOINT LeftThumbFinger
									{
										OFFSET 3.4000 0.3000 4.2000
										CHANNELS 3 Yrotation Xrotation Zrotation
										JOINT LeftThumbFinger1
										{
											OFFSET 3.5000 0.0000 3.5000
											CHANNELS 3 Yrotation Xrotation Zrotation
											JOINT LeftThumbFinger2
											{
												OFFSET 2.5000 0.0000 2.5000
												CHANNELS 3 Yrotation Xrotation Zrotation
												End Site
												{
													OFFSET 2.1450 0.0000 2.1450
												}
											}
										}
									}
									JOINT LeftIndexFinger
									{
										OFFSET 4.4000 0.7000 2.6000
										CHANNELS 3 Yrotation Xrotation Zrotation
										JOINT LeftIndexFinger1
										{
											OFFSET 7.0000 -0.1000 1.4000
											CHANNELS 3 Yrotation Xrotation Zrotation
											JOINT LeftIndexFinger2
											{
												OFFSET 5.0000 -0.2000 0.0000
												CHANNELS 3 Yrotation Xrotation Zrotation
												JOINT LeftIndexFinger3
												{
													OFFSET 2.7000 -0.2000 0.0000
													CHANNELS 3 Yrotation Xrotation Zrotation
													End Site
													{
														OFFSET 2.3814 -0.1764 0.0000
													}
												}
											}
										}
									}
									JOINT LeftMiddleFinger
									{
										OFFSET 4.6000 0.7000 1.0000
										CHANNELS 3 Yrotation Xrotation Zrotation
										JOINT LeftMiddleFinger1
										{
											OFFSET 7.0000 -0.1000 0.4000
											CHANNELS 3 Yrotation Xrotation Zrotation
											JOINT LeftMiddleFinger2
											{
												OFFSET 5.3000 -0.3000 0.0000
												CHANNELS 3 Yrotation Xrotation Zrotation
												JOINT LeftMiddleFinger3
												{
													OFFSET 3.4000 -0.3000 0.0000
													CHANNELS 3 Yrotation Xrotation Zrotation
													End Site
													{
														OFFSET 2.9988 -0.2646 0.0000
													}
												}
											}
										}
									}
									JOINT LeftRingFinger
									{
										OFFSET 4.5000 0.8000 -0.1000
										CHANNELS 3 Yrotation Xrotation Zrotation
										JOINT LeftRingFinger1
										{
											OFFSET 6.3000 -0.1000 -0.7000
											CHANNELS 3 Yrotation Xrotation Zrotation
											JOINT LeftRingFinger2
											{
												OFFSET 4.7000 -0.3000 0.0000
												CHANNELS 3 Yrotation Xrotation Zrotation
												JOINT LeftRingFinger3
												{
													OFFSET 3.2000 -0.2000 0.0000
													CHANNELS 3 Yrotation Xrotation Zrotation
													End Site
													{
														OFFSET 2.8224 -0.1764 0.0000
													}
												}
											}
										}
									}
									JOINT LeftPinkyFinger
									{
										OFFSET 4.3000 0.7000 -1.6000
										CHANNELS 3 Yrotation Xrotation Zrotation
										JOINT LeftPinkyFinger1
										{
											OFFSET 5.6000 -0.1000 -1.5000
											CHANNELS 3 Yrotation Xrotation Zrotation
											JOINT LeftPinkyFinger2
											{
												OFFSET 3.7000 -0.2000 0.1000
												CHANNELS 3 Yrotation Xrotation Zrotation
												JOINT LeftPinkyFinger3
												{
													OFFSET 2.4000 -0.1000 -0.1000
													CHANNELS 3 Yrotation Xrotation Zrotation
													End Site
													{
														OFFSET 2.1168 -0.0882 -0.0882
													}
												}
											}
										}
									}
								}
							}
						}
					}
				}
			}
		}
	}
}
MOTION
Frames: 11
Frame Time: 0.0166667
15.6732 -0.0017 -16.8806 77.83 2.67 -8.17 24.98 -45.93 -12.37 30.31 67.56 61.44 -5.76 -13.51 -1.69 0.00 -0.00 0.00 -13.54 -11.68 6.19 7.19 18.73 -0.01 -1.08 -9.27 3.98 -0.00 -0.00 0.00 0.80 -0.06 0.54 1.04 -0.07 0.94 1.12 -0.08 1.01 1.12 -0.08 1.01 -1.75 1.59 -0.74 -1.49 1.35 -0.62 -3.65 5.87 4.37 8.42 8.50 83.92 1.16 -7.68 -2.64 1.51 22.96 20.20 1.05 -7.54 1.22 -7.40 -1.64 11.91 -12.25 0.35 16.50 0.00 0.00 -0.00 1.97 0.26 -7.39 0.00 -0.00 -0.00 0.00 -0.00 -0.00 0.00 0.00 -0.00 -0.00 0.00 45.72 -0.00 -0.00 76.97 -0.00 -0.00 59.11 0.00 0.00 -0.00 -0.16 0.54 73.67 0.56 -0.00 84.02 0.00 -0.00 76.51 0.00 0.00 -0.00 -3.06 1.69 28.90 3.50 -0.00 67.21 -0.00 -0.00 46.08 -3.17 8.03 -3.25 -3.70 -2.74 -85.83 0.73 5.51 7.61 -3.21 5.38 -0.44 -1.17 2.82 -1.11 2.89 1.51 -7.50 3.98 3.06 -11.25 -0.00 0.00 0.00 -1.97 -0.24 -6.81 0.81 -0.86 -36.34 0.63 -0.31 -20.46 -0.00 0.00 0.00 -0.00 -0.00 -11.55 -0.00 0.00 -46.64 -0.00 0.00 -27.68 -0.00 0.00 0.00 1.90 0.43 -12.59 -1.31 0.72 -48.46 -0.97 -0.00 -29.06 -0.00 0.00 0.00 3.97 0.32 -4.65 -1.13 1.64 -29.89 -0.88 0.71 -16.36
15.7020 0.0066 -16.8672 77.87 2.62 -8.06 24.29 -45.36 -11.69 29.23 66.62 59.74 -5.84 -13.38 -1.79 0.00 -0.00 0.00 -13.61 -11.55 6.04 7.36 18.59 0.07 -1.15 -9.29 3.97 -0.00 0.00 0.00 0.78 -0.06 0.55 1.01 -0.08 0.92 1.09 -0.08 1.00 1.09 -0.08 1.00 -1.75 1.61 -0.76 -1.49 1.37 -0.65 -3.66 5.89 4.34 8.36 8.64 83.88 1.07 -7.61 -2.64 1.53 23.04 20.31 1.05 -7.53 1.22 -7.38 -1.64 11.90 -12.21 0.35 16.49 0.00 0.00 0.00 1.97 0.24 -6.88 -0.00 -0.00 0.00 -0.00 -0.00 0.00 0.00 0.00 0.00 0.00 0.00 45.66 -0.00 0.00 76.94 -0.00 0.00 59.07 0.00 0.00 0.00 -0.16 0.54 73.71 0.56 -0.00 84.03 -0.00 -0.00 76.53 0.00 0.00 0.00 -3.06 1.70 29.03 3.50 0.00 67.31 -0.00 -0.00 46.20 -3.10 8.02 -3.27 -3.67 -2.56 -85.97 0.71 5.31 7.60 -3.18 5.38 -0.50 -1.17 2.84 -1.11 2.88 1.51 -7.50 3.97 3.07 -11.25 0.00 0.00 0.00 -1.97 -0.24 -6.82 0.81 -0.86 -36.35 0.63 -0.31 -20.47 0.00 0.00 0.00 -0.00 -0.00 -11.55 -0.00 0.00 -46.63 -0.00 0.00 -27.67 0.00 0.00 0.00 1.90 0.43 -12.59 -1.31 0.72 -48.47 -0.97 -0.00 -29.07 0.00 0.00 0.00 3.97 0.32 -4.65 -1.13 1.64 -29.87 -0.87 0.71 -16.35
15.7546 -0.0133 -16.8294 78.00 2.54 -7.89 23.71 -44.14 -10.88 26.19 65.10 55.98 -5.94 -13.18 -1.94 0.00 -0.00 -0.00 -13.84 -11.40 5.84 7.62 18.48 0.14 -1.24 -9.31 3.95 0.00 -0.00 0.00 0.75 -0.06 0.56 0.97 -0.08 0.90 1.04 -0.09 0.97 1.04 -0.09 0.97 -1.75 1.61 -0.78 -1.49 1.37 -0.66 -3.67 5.92 4.30 8.28 8.80 83.86 0.97 -7.51 -2.65 1.55 23.15 20.42 1.06 -7.50 1.23 -7.34 -1.63 11.89 -12.15 0.35 16.48 -0.00 0.00 0.00 1.97 0.22 -6.34 0.00 0.00 -0.00 0.00 0.00 -0.00 -0.00 0.00 0.00 0.00 0.00 45.55 0.00 0.00 76.90 -0.00 0.00 58.99 -0.00 0.00 0.00 -0.16 0.54 73.70 0.56 -0.00 84.03 -0.00 0.00 76.53 -0.00 0.00 0.00 -3.05 1.70 29.12 3.49 -0.00 67.38 0.00 -0.00 46.27 -3.03 8.00 -3.28 -3.70 -2.29 -86.11 0.69 5.20 7.57 -3.16 5.37 -0.55 -1.16 2.86 -1.11 2.88 1.52 -7.50 3.97 3.08 -11.24 0.00 0.00 0.00 -1.97 -0.24 -6.82 0.81 -0.86 -36.35 0.63 -0.31 -20.47 0.00 0.00 0.00 -0.00 0.00 -11.53 0.00 0.00 -46.60 0.00 0.00 -27.65 0.00 0.00 0.00 1.91 0.42 -12.57 -1.31 0.73 -48.43 -0.97 0.00 -29.03 0.00 0.00 0.00 3.97 0.32 -4.63 -1.13 1.64 -29.81 -0.87 0.71 -16.31
15.8046 -0.0197 -16.7970 78.12 2.46 -7.73 23.26 -43.03 -10.21 23.70 63.70 52.87 -6.02 -13.00 -2.07 -0.00 0.00 -0.00 -14.05 -11.26 5.67 7.83 18.40 0.20 -1.30 -9.33 3.94 0.00 0.00 -0.00 0.73 -0.07 0.56 0.93 -0.09 0.88 1.01 -0.09 0.95 1.01 -0.09 0.95 -1.76 1.60 -0.80 -1.50 1.37 -0.68 -3.69 5.94 4.26 8.21 8.95 83.84 0.90 -7.43 -2.67 1.58 23.23 20.52 1.06 -7.49 1.23 -7.33 -1.63 11.88 -12.13 0.35 16.47 -0.00 0.00 0.00 1.98 0.21 -6.17 -0.00 0.00 0.00 -0.00 0.00 0.00 -0.00 0.00 0.00 0.00 0.00 45.53 0.00 0.00 76.89 -0.00 0.00 58.98 -0.00 0.00 0.00 -0.16 0.54 73.71 0.56 0.00 84.03 -0.00 -0.00 76.53 -0.00 0.00 0.00 -3.05 1.70 29.16 3.49 0.00 67.41 -0.00 -0.00 46.31 -2.97 7.98 -3.29 -3.73 -2.05 -86.22 0.68 5.11 7.54 -3.15 5.37 -0.59 -1.16 2.87 -1.11 2.88 1.52 -7.49 3.96 3.08 -11.24 0.00 0.00 -0.00 -1.97 -0.24 -6.82 0.81 -0.86 -36.34 0.63 -0.31 -20.47 0.00 0.00 -0.00 -0.00 0.00 -11.53 -0.00 0.00 -46.59 0.00 0.00 -27.64 0.00 0.00 -0.00 1.91 0.42 -12.57 -1.31 0.73 -48.43 -0.97 0.00 -29.03 0.00 0.00 -0.00 3.97 0.32 -4.63 -1.13 1.64 -29.80 -0.87 0.71 -16.30
15.8699 -0.0392 -16.7424 78.30 2.39 -7.55 22.84 -41.64 -9.47 20.63 62.00 49.06 -6.04 -12.80 -2.23 -0.00 -0.00 0.00 -14.30 -11.15 5.49 8.02 18.37 0.22 -1.36 -9.35 3.93 -0.00 -0.00 -0.00 0.70 -0.07 0.56 0.90 -0.09 0.86 0.97 -0.10 0.93 0.97 -0.10 0.93 -1.78 1.59 -0.81 -1.52 1.35 -0.69 -3.68 5.93 4.23 8.11 9.10 83.85 0.82 -7.33 -2.68 1.59 23.32 20.60 1.06 -7.47 1.23 -7.31 -1.63 11.87 -12.09 0.34 16.46 0.00 0.00 0.00 1.98 0.21 -5.94 0.00 -0.00 0.00 0.00 -0.00 0.00 0.00 0.00 0.00 0.00 0.00 45.45 0.00 0.00 76.86 -0.00 0.00 58.92 0.00 0.00 0.00 -0.16 0.54 73.66 0.56 0.00 84.02 -0.00 -0.00 76.50 0.00 0.00 0.00 -3.05 1.70 29.17 3.49 0.00 67.42 -0.00 0.00 46.32 -2.88 7.94 -3.28 -3.82 -1.78 -86.34 0.67 5.09 7.52 -3.14 5.36 -0.62 -1.16 2.88 -1.10 2.88 1.53 -7.49 3.97 3.08 -11.23 0.00 -0.00 -0.00 -1.97 -0.24 -6.81 0.81 -0.86 -36.32 0.63 -0.31 -20.45 0.00 -0.00 -0.00 -0.00 0.00 -11.51 -0.00 0.00 -46.56 -0.00 0.00 -27.62 0.00 -0.00 -0.00 1.91 0.42 -12.54 -1.31 0.73 -48.38 -0.97 0.00 -29.00 0.00 -0.00 -0.00 3.97 0.32 -4.61 -1.12 1.64 -29.75 -0.87 0.71 -16.27
15.9718 -0.1000 -16.6407 78.63 2.29 -7.30 22.19 -39.73 -8.44 16.81 59.66 44.08 -5.97 -12.48 -2.44 0.00 0.00 0.00 -14.62 -11.06 5.25 8.08 18.47 0.20 -1.37 -9.40 3.93 -0.00 0.00 -0.00 0.67 -0.08 0.55 0.85 -0.09 0.83 0.92 -0.10 0.89 0.92 -0.10 0.89 -1.82 1.55 -0.82 -1.55 1.32 -0.70 -3.69 5.90 4.18 7.98 9.27 83.91 0.75 -7.22 -2.71 1.62 23.40 20.66 1.07 -7.43 1.24 -7.26 -1.62 11.84 -12.01 0.34 16.44 -0.00 -0.00 -0.00 1.98 0.19 -5.44 -0.00 -0.00 0.00 -0.00 -0.00 0.00 -0.00 -0.00 -0.00 0.00 -0.00 45.35 0.00 0.00 76.81 -0.00 0.00 58.85 -0.00 -0.00 -0.00 -0.16 0.54 73.53 0.57 0.00 84.01 -0.00 0.00 76.43 -0.00 -0.00 -0.00 -3.05 1.70 29.19 3.49 -0.00 67.44 0.00 -0.00 46.33 -2.81 7.87 -3.26 -3.95 -1.44 -86.46 0.68 5.14 7.50 -3.14 5.35 -0.66 -1.15 2.89 -1.10 2.88 1.53 -7.48 3.96 3.09 -11.22 -0.00 0.00 -0.00 -1.97 -0.24 -6.80 0.81 -0.86 -36.29 0.63 -0.31 -20.43 -0.00 0.00 -0.00 0.00 0.00 -11.49 0.00 0.00 -46.53 0.00 0.00 -27.59 -0.00 0.00 -0.00 1.91 0.42 -12.52 -1.31 0.73 -48.35 -0.97 0.00 -28.97 -0.00 0.00 -0.00 3.97 0.32 -4.58 -1.12 1.64 -29.66 -0.86 0.71 -16.22
16.0796 -0.1661 -16.5299 78.99 2.19 -7.04 21.44 -37.60 -7.21 13.21 56.89 39.09 -5.94 -12.07 -2.67 0.00 -0.00 0.00 -14.92 -11.00 5.02 8.06 18.62 0.16 -1.36 -9.47 3.93 0.00 0.00 -0.00 0.64 -0.08 0.53 0.80 -0.10 0.79 0.87 -0.11 0.86 0.87 -0.11 0.86 -1.87 1.50 -0.84 -1.59 1.28 -0.71 -3.70 5.87 4.13 7.87 9.43 84.00 0.68 -7.11 -2.73 1.67 23.45 20.70 1.07 -7.40 1.24 -7.23 -1.62 11.82 -11.97 0.34 16.42 -0.00 0.00 -0.00 1.98 0.17 -5.00 0.00 -0.00 0.00 0.00 -0.00 0.00 -0.00 0.00 -0.00 0.00 -0.00 45.32 0.00 0.00 76.80 -0.00 0.00 58.83 -0.00 0.00 -0.00 -0.16 0.55 73.43 0.57 0.00 83.99 -0.00 0.00 76.37 -0.00 0.00 -0.00 -3.05 1.70 29.16 3.49 0.00 67.41 0.00 0.00 46.31 -2.74 7.79 -3.23 -4.07 -1.12 -86.55 0.68 5.21 7.48 -3.14 5.35 -0.69 -1.15 2.89 -1.10 2.88 1.53 -7.48 3.96 3.09 -11.22 0.00 -0.00 0.00 -1.97 -0.23 -6.79 0.81 -0.86 -36.27 0.62 -0.31 -20.42 0.00 -0.00 0.00 0.00 0.00 -11.47 0.00 0.00 -46.49 0.00 -0.00 -27.56 0.00 -0.00 0.00 1.91 0.42 -12.49 -1.30 0.73 -48.30 -0.97 0.00 -28.93 0.00 -0.00 0.00 3.97 0.32 -4.55 -1.11 1.63 -29.55 -0.86 0.71 -16.15
16.1932 -0.2492 -16.4056 79.38 2.11 -6.77 20.64 -35.34 -5.92 10.09 53.81 34.39 -5.96 -11.55 -2.86 0.00 -0.00 -0.00 -15.22 -11.00 4.81 7.97 18.89 0.05 -1.34 -9.58 3.95 0.00 -0.00 0.00 0.61 -0.09 0.52 0.76 -0.10 0.76 0.82 -0.11 0.82 0.82 -0.11 0.82 -1.91 1.44 -0.85 -1.63 1.23 -0.73 -3.69 5.80 4.10 7.73 9.58 84.10 0.63 -7.02 -2.76 1.74 23.50 20.74 1.08 -7.37 1.25 -7.21 -1.61 11.80 -11.92 0.34 16.40 0.00 0.00 0.00 1.99 0.16 -4.54 0.00 -0.00 -0.00 0.00 -0.00 -0.00 0.00 0.00 0.00 0.00 -0.00 45.27 0.00 0.00 76.78 -0.00 0.00 58.80 0.00 0.00 0.00 -0.16 0.55 73.34 0.57 0.00 83.98 -0.00 0.00 76.32 0.00 0.00 0.00 -3.05 1.70 29.16 3.49 -0.00 67.42 0.00 0.00 46.31 -2.65 7.69 -3.19 -4.18 -0.80 -86.64 0.69 5.30 7.45 -3.14 5.33 -0.72 -1.15 2.91 -1.10 2.88 1.54 -7.49 3.96 3.10 -11.23 -0.00 -0.00 0.00 -1.97 -0.23 -6.79 0.81 -0.86 -36.27 0.62 -0.31 -20.42 -0.00 -0.00 0.00 0.00 0.00 -11.47 0.00 0.00 -46.48 0.00 -0.00 -27.56 -0.00 -0.00 0.00 1.91 0.42 -12.48 -1.30 0.73 -48.29 -0.97 0.00 -28.92 -0.00 -0.00 0.00 3.98 0.32 -4.53 -1.10 1.63 -29.46 -0.85 0.71 -16.10
16.2955 -0.3116 -16.2963 79.72 2.03 -6.53 19.97 -33.36 -4.80 7.84 51.01 30.72 -5.99 -11.08 -3.02 -0.00 -0.00 -0.00 -15.48 -11.02 4.63 7.88 19.15 -0.05 -1.31 -9.69 3.98 -0.00 -0.00 -0.00 0.58 -0.09 0.50 0.73 -0.11 0.72 0.79 -0.12 0.78 0.79 -0.12 0.78 -1.96 1.38 -0.87 -1.66 1.18 -0.74 -3.69 5.74 4.07 7.60 9.71 84.19 0.58 -6.95 -2.78 1.80 23.53 20.77 1.08 -7.36 1.25 -7.19 -1.61 11.79 -11.89 0.34 16.39 0.00 -0.00 0.00 1.99 0.15 -4.35 -0.00 0.00 0.00 -0.00 0.00 0.00 0.00 -0.00 0.00 -0.00 -0.00 45.25 -0.00 -0.00 76.77 0.00 -0.00 58.78 0.00 -0.00 0.00 -0.17 0.55 73.29 0.58 0.00 83.98 -0.00 0.00 76.30 0.00 -0.00 0.00 -3.05 1.70 29.16 3.49 -0.00 67.41 0.00 0.00 46.31 -2.57 7.60 -3.15 -4.27 -0.53 -86.70 0.70 5.38 7.43 -3.13 5.31 -0.73 -1.15 2.92 -1.10 2.88 1.54 -7.49 3.96 3.11 -11.23 0.00 -0.00 -0.00 -1.97 -0.23 -6.78 0.81 -0.86 -36.26 0.62 -0.31 -20.41 0.00 -0.00 -0.00 0.00 0.00 -11.46 0.00 -0.00 -46.47 0.00 -0.00 -27.55 0.00 -0.00 -0.00 1.91 0.42 -12.48 -1.30 0.73 -48.27 -0.97 0.01 -28.91 0.00 -0.00 -0.00 3.98 0.31 -4.52 -1.10 1.63 -29.42 -0.85 0.71 -16.07
16.3936 -0.4107 -16.1725 80.15 1.95 -6.24 19.23 -31.24 -3.70 5.95 47.90 27.31 -6.14 -10.43 -3.23 0.00 -0.00 -0.00 -15.87 -11.13 4.46 7.78 19.57 -0.23 -1.27 -9.84 4.03 -0.00 0.00 0.00 0.55 -0.09 0.48 0.69 -0.11 0.69 0.75 -0.12 0.74 0.75 -0.12 0.74 -2.02 1.32 -0.91 -1.72 1.12 -0.77 -3.70 5.66 4.02 7.53 9.84 84.33 0.55 -6.90 -2.81 1.89 23.57 20.80 1.09 -7.31 1.26 -7.15 -1.60 11.76 -11.82 0.33 16.35 -0.00 0.00 -0.00 1.99 0.13 -3.69 0.00 -0.00 0.00 0.00 -0.00 0.00 -0.00 0.00 -0.00 0.00 -0.00 45.15 0.00 0.00 76.72 -0.00 0.00 58.71 -0.00 0.00 -0.00 -0.17 0.56 73.11 0.58 0.00 83.95 -0.00 0.00 76.19 -0.00 0.00 -0.00 -3.05 1.70 29.15 3.49 -0.00 67.41 -0.00 -0.00 46.30 -2.52 7.50 -3.11 -4.35 -0.28 -86.77 0.71 5.45 7.41 -3.13 5.28 -0.74 -1.15 2.92 -1.10 2.88 1.54 -7.48 3.96 3.10 -11.23 0.00 -0.00 0.00 -1.97 -0.23 -6.77 0.81 -0.86 -36.22 0.62 -0.31 -20.38 0.00 -0.00 0.00 -0.00 -0.00 -11.46 -0.00 -0.00 -46.47 -0.00 0.00 -27.55 0.00 -0.00 0.00 1.91 0.42 -12.48 -1.30 0.73 -48.27 -0.97 0.01 -28.91 0.00 -0.00 0.00 3.98 0.31 -4.49 -1.09 1.63 -29.32 -0.84 0.71 -16.01
16.4780 -0.5492 -16.0374 80.65 1.89 -5.93 18.53 -29.06 -2.70 4.34 44.69 24.31 -6.28 -9.93 -3.90 -0.00 0.00 -0.00 -16.39 -11.36 4.36 7.69 20.19 -0.53 -1.21 -10.04 4.13 0.00 -0.00 0.00 0.52 -0.09 0.46 0.65 -0.11 0.65 0.70 -0.12 0.70 0.70 -0.12 0.70 -2.09 1.24 -0.96 -1.78 1.06 -0.82 -3.75 5.56 3.95 7.50 9.96 84.52 0.53 -6.85 -2.85 1.99 23.60 20.82 1.09 -7.25 1.26 -7.11 -1.59 11.71 -11.75 0.32 16.30 0.00 -0.00 0.00 1.99 0.11 -3.09 0.00 -0.00 -0.00 0.00 -0.00 -0.00 0.00 -0.00 0.00 0.00 -0.00 45.05 0.00 0.00 76.68 -0.00 0.00 58.64 0.00 -0.00 0.00 -0.17 0.56 72.94 0.59 0.00 83.93 -0.00 0.00 76.10 0.00 -0.00 0.00 -3.05 1.70 29.17 3.49 -0.00 67.42 -0.00 -0.00 46.32 -2.51 7.40 -3.06 -4.33 -0.07 -86.82 0.71 5.50 7.38 -3.12 5.23 -0.74 -1.15 2.91 -1.09 2.89 1.54 -7.48 3.97 3.10 -11.22 -0.00 0.00 -0.00 -1.97 -0.23 -6.76 0.80 -0.86 -36.18 0.62 -0.31 -20.36 -0.00 0.00 -0.00 0.00 0.00 -11.41 0.00 -0.00 -46.38 0.00 -0.00 -27.48 -0.00 0.00 -0.00 1.91 0.42 -12.45 -1.30 0.73 -48.22 -0.97 0.01 -28.87 -0.00 0.00 -0.00 3.98 0.31 -4.43 -1.08 1.62 -29.12 -0.83 0.71 -15.88
